<svg version="1.1" id="图层_1" xmlns="http://www.w3.org/2000/svg" xmlns:xlink="http://www.w3.org/1999/xlink" x="0px" y="0px"
	 viewBox="-500 0 6000 5000" style="enable-background:new 0 0 5000 5000;" xml:space="preserve">
    <style type="text/css">
        .st0{fill-opacity:0;}
        .st1{fill:#E5E7E8;}
    </style>
	<rect class="st0" width="5000" height="5000"/>
	<g id="_x34_91306" transform="matrix(23.2876 0 0 23.2876 2499.4997 2499.4997)">
        <path class="st1" d="M0-101.2c-55.9,0-101.2,45.3-101.2,101.2c0,39.4,22.5,73.5,55.3,90.2C-39.9,64.3-23,41,2.4,27.8
        C33.2,12,68.8,14.8,96,32.2c3.4-10.1,5.2-20.9,5.2-32.1C101.2-55.9,55.9-101.2,0-101.2z M-41.6-11.8c-10.8,0-19.5-8.7-19.5-19.5
        s8.7-19.5,19.5-19.5s19.5,8.7,19.5,19.5C-22.1-20.6-30.8-11.8-41.6-11.8z M42.6-11.2C31.8-11.2,23-19.9,23-30.7s8.7-19.5,19.5-19.5
        S62-41.5,62-30.7C62.1-19.9,53.3-11.2,42.6-11.2z"/>
    </g>
</svg>
